<svg id="Layer_1" data-name="Layer 1" xmlns="http://www.w3.org/2000/svg" viewBox="0 0 863.06 173.41"><defs><style>.cls-1{font-size:133.04px;font-family:BebasNeue-Regular, Bebas Neue;}.cls-1,.cls-16{fill:#15ffc0;}.cls-2{letter-spacing:0em;}.cls-3{letter-spacing:-0.01em;}.cls-4,.cls-5,.cls-6,.cls-7,.cls-8{fill:#fff;}.cls-4{letter-spacing:-0.01em;}.cls-5{letter-spacing:-0.05em;}.cls-6{letter-spacing:0em;}.cls-7{letter-spacing:0em;}.cls-8{font-size:37.57px;font-family:SegoeUI-Semilight, Segoe UI;font-weight:300;letter-spacing:0.03em;}.cls-9{letter-spacing:0.03em;}.cls-10{letter-spacing:-0.03em;}.cls-11{letter-spacing:0.01em;}.cls-12{letter-spacing:-0.04em;}.cls-13{letter-spacing:0.03em;}.cls-14{letter-spacing:0.01em;}.cls-15{letter-spacing:0.03em;}</style></defs><text class="cls-1" transform="translate(167.39 113.08)"><tspan class="cls-2">C</tspan><tspan x="51.22" y="0">ORON</tspan><tspan class="cls-3" x="268.07" y="0">A</tspan><tspan class="cls-4" x="319.56" y="0">W</tspan><tspan class="cls-5" x="391.8" y="0">A</tspan><tspan class="cls-6" x="439.03" y="0">T</tspan><tspan class="cls-7" x="486.93" y="0">CHER</tspan></text><text class="cls-8" transform="translate(171.71 158.66)">R<tspan class="cls-9" x="22.68" y="0">E</tspan><tspan x="42.77" y="0">A</tspan><tspan class="cls-10" x="67.69" y="0">L</tspan><tspan x="84.08" y="0">TIME UP</tspan><tspan class="cls-11" x="227.4" y="0">D</tspan><tspan class="cls-12" x="253.64" y="0">A</tspan><tspan class="cls-13" x="275.86" y="0">TED </tspan><tspan class="cls-14" x="354.38" y="0">C</tspan><tspan class="cls-15" x="378.19" y="0">OVID-19 TR</tspan><tspan class="cls-14" x="575.17" y="0">A</tspan><tspan class="cls-13" x="599.59" y="0">CKER</tspan></text><circle class="cls-16" cx="56.88" cy="17.88" r="6.93"/><path class="cls-16" d="M75,28.5a57.55,57.55,0,1,0,57.55,57.55A57.55,57.55,0,0,0,75,28.5Zm0,107.65a50.1,50.1,0,1,1,50.1-50.1A50.1,50.1,0,0,1,75,136.15Z"/><path class="cls-16" d="M75,50.66a35.39,35.39,0,1,0,35.4,35.39A35.39,35.39,0,0,0,75,50.66Zm0,66.2a30.81,30.81,0,1,1,30.82-30.81A30.81,30.81,0,0,1,75,116.86Z"/><path class="cls-16" d="M54.37,23.12s4.47,6.2.48,10.76l12.31-3s-6.27-1.18-4.78-9.43C62.38,21.43,58.47,22.12,54.37,23.12Z"/><circle class="cls-16" cx="25.17" cy="36.33" r="6.93"/><path class="cls-16" d="M25.62,42.13s7,3.13,5.79,9.08l9.16-8.77s-6,2.11-8.86-5.78C31.71,36.66,28.67,39.21,25.62,42.13Z"/><circle class="cls-16" cx="6.94" cy="68.16" r="6.93"/><path class="cls-16" d="M10.22,73s7.6-.77,9.56,5l3.54-12.18s-4.16,4.85-10.56-.57C12.76,65.18,11.4,68.91,10.22,73Z"/><circle class="cls-16" cx="7.06" cy="104.85" r="6.93"/><path class="cls-16" d="M12.31,107.37s6.19-4.48,10.75-.49l-3-12.31s-1.18,6.28-9.44,4.78C10.61,99.35,11.3,103.26,12.31,107.37Z"/><circle class="cls-16" cx="25.51" cy="136.56" r="6.93"/><path class="cls-16" d="M31.31,136.12s3.13-7,9.08-5.8l-8.77-9.15s2.11,6-5.78,8.85C25.84,130,28.39,133.07,31.31,136.12Z"/><circle class="cls-16" cx="57.34" cy="154.8" r="6.93"/><path class="cls-16" d="M62.15,151.51s-.78-7.6,5-9.56l-12.17-3.54s4.84,4.16-.58,10.56C54.36,149,58.09,150.33,62.15,151.51Z"/><circle class="cls-16" cx="94.03" cy="154.67" r="6.93"/><path class="cls-16" d="M96.55,149.43s-4.47-6.2-.48-10.76l-12.32,3s6.28,1.18,4.78,9.43C88.53,151.12,92.44,150.43,96.55,149.43Z"/><circle class="cls-16" cx="125.74" cy="136.22" r="6.93"/><path class="cls-16" d="M125.3,130.42s-7-3.13-5.8-9.07l-9.15,8.77s6-2.12,8.85,5.78C119.2,135.9,122.25,133.35,125.3,130.42Z"/><circle class="cls-16" cx="143.98" cy="104.39" r="6.93"/><path class="cls-16" d="M140.7,99.59s-7.61.77-9.56-5l-3.55,12.18s4.16-4.85,10.56.57C138.15,107.37,139.51,103.64,140.7,99.59Z"/><circle class="cls-16" cx="143.86" cy="67.7" r="6.93"/><path class="cls-16" d="M138.61,65.18s-6.19,4.48-10.76.49l3,12.31s1.18-6.28,9.43-4.78C140.3,73.2,139.62,69.29,138.61,65.18Z"/><circle class="cls-16" cx="125.41" cy="35.99" r="6.93"/><path class="cls-16" d="M119.6,36.43s-3.12,7-9.07,5.8l8.77,9.16s-2.12-6,5.78-8.86C125.08,42.53,122.53,39.48,119.6,36.43Z"/><circle class="cls-16" cx="93.57" cy="17.75" r="6.93"/><path class="cls-16" d="M88.77,21s.78,7.6-5,9.56L96,34.14s-4.85-4.16.58-10.56C96.56,23.58,92.83,22.22,88.77,21Z"/><circle class="cls-16" cx="74.99" cy="86.05" r="8.91"/></svg>