<svg id="Layer_1" data-name="Layer 1" xmlns="http://www.w3.org/2000/svg" viewBox="0 0 40.35 20.67"><defs><style>.cls-1{fill:#2d94c1;}.cls-2{fill:#fefefe;}.cls-3{fill:#ff6150;}</style></defs><path class="cls-1" d="M0,8.75c.37,0,.73,0,1.1.05a7,7,0,0,0,3.5-1c1-.59,2-1.26,3-1.93,1.19-.81,2.33-1.68,3.53-2.48A21.08,21.08,0,0,1,16.48.7,14,14,0,0,1,19.2.11,13.12,13.12,0,0,1,20.73,0,13.48,13.48,0,0,1,26,1.2a18.56,18.56,0,0,1,4,2.54A22.78,22.78,0,0,1,33.47,7.3c.44.56.86,1.14,1.26,1.72.12.17.11.27,0,.43a36.47,36.47,0,0,1-4.6,3.9,27.4,27.4,0,0,1-3.63,2.2,2,2,0,0,1-.63.21c.18-.3.48-.41.7-.6.4-.34.82-.65,1.19-1,.53-.52,1.08-1,1.6-1.58,1-1.06,1.95-2.17,2.89-3.3a.34.34,0,0,0,0-.5A23.4,23.4,0,0,0,29.7,6a17.09,17.09,0,0,0-4.48-3.1A11.32,11.32,0,0,0,22,2a11.7,11.7,0,0,0-6,.89,25.45,25.45,0,0,0-5.53,3.26,35.32,35.32,0,0,1-3.95,2.7,8,8,0,0,1-2.77.87,5.5,5.5,0,0,1-2.92-.4A2.58,2.58,0,0,1,0,8.75Z"/><path class="cls-1" d="M40.35,12a6.81,6.81,0,0,0-1.19,0,6.69,6.69,0,0,0-3.44,1c-1.25.75-2.48,1.55-3.67,2.4-.87.62-1.73,1.26-2.62,1.85A21.63,21.63,0,0,1,23.86,20a14.56,14.56,0,0,1-3.59.65,12.75,12.75,0,0,1-6-1.18,17.85,17.85,0,0,1-3.75-2.37,22,22,0,0,1-2.14-2,27.81,27.81,0,0,1-2.8-3.51c-.1-.16-.08-.25.06-.38.86-.86,1.77-1.67,2.71-2.46A32.68,32.68,0,0,1,12.1,6.12,17.33,17.33,0,0,1,14.18,5c.07,0,.18-.13.24,0s-.05.13-.13.18a18.6,18.6,0,0,0-1.86,1.57c-.52.49-1,1-1.51,1.52a38.78,38.78,0,0,0-2.61,3l-.18.19a.29.29,0,0,0,0,.45,24.13,24.13,0,0,0,2.55,2.8,17.07,17.07,0,0,0,4.29,3,11.62,11.62,0,0,0,3.43,1,11.74,11.74,0,0,0,6-.9,25.77,25.77,0,0,0,5.39-3.15,38.11,38.11,0,0,1,4.1-2.81A7.8,7.8,0,0,1,36.61,11a5.53,5.53,0,0,1,2.93.41A2.32,2.32,0,0,1,40.35,12Z"/><path class="cls-2" d="M24.81,7.37s0,.06,0,0Z"/><path class="cls-2" d="M23.85,9.45a.93.93,0,0,1,1-1,1,1,0,0,1,1.05,1,1.11,1.11,0,0,1-1,1.05A1,1,0,0,1,23.85,9.45Z"/><path class="cls-3" d="M14.21,10.12V9.84a.59.59,0,0,0,0-.13c0-.3,0-.61.11-.91A5.7,5.7,0,0,1,16,5.75a5.79,5.79,0,0,1,5-1.61,5.65,5.65,0,0,1,2.41,1,5.9,5.9,0,0,1,.17,9.66,5.74,5.74,0,0,1-2.86,1.11l-.49.05H20l-.14,0c-.29,0-.6,0-.89-.1a5.86,5.86,0,0,1-3.62-2.33,5.7,5.7,0,0,1-1.09-2.84C14.24,10.45,14.22,10.28,14.21,10.12ZM23.48,10h0c0-.18,0-.37,0-.55a.21.21,0,0,0-.21-.22.21.21,0,0,0-.22.19,1.64,1.64,0,0,0,0,.22c0,.1,0,.14-.13.14h-.46a.13.13,0,0,1-.15-.12,2.14,2.14,0,0,0-.4-1c0-.06,0-.11,0-.15l.24-.24c.21-.21.18-.24.41,0l0,0a.24.24,0,0,0,.31,0,.23.23,0,0,0,0-.31c-.26-.27-.53-.54-.8-.8a.21.21,0,0,0-.29,0,.22.22,0,0,0,0,.31l.13.14a.11.11,0,0,1,0,.19l-.33.34a.12.12,0,0,1-.18,0,2.14,2.14,0,0,0-1-.39.11.11,0,0,1-.11-.12V7.2c0-.09,0-.13.13-.13h.19a.22.22,0,1,0,0-.43h-1.1a.2.2,0,0,0-.21.22.21.21,0,0,0,.21.21h.2a.13.13,0,0,1,.14.14v.47c0,.08,0,.13-.13.14a2.28,2.28,0,0,0-.95.4.1.1,0,0,1-.16,0l-.36-.36a.1.1,0,0,1,0-.17l.16-.15a.24.24,0,0,0,0-.31.21.21,0,0,0-.29,0l-.8.79a.22.22,0,0,0,0,.3.21.21,0,0,0,.3,0l.15-.14c.06-.07.12-.07.19,0s.21.22.33.32a.14.14,0,0,1,0,.21,2,2,0,0,0-.38.93c0,.09-.06.12-.14.12h-.48c-.09,0-.13,0-.13-.13V9.41a.23.23,0,0,0-.22-.2.22.22,0,0,0-.22.2v1.14a.21.21,0,0,0,.21.2.21.21,0,0,0,.23-.2v-.2c0-.11.05-.15.15-.15h.45a.13.13,0,0,1,.15.11,2.29,2.29,0,0,0,.4,1c.05.05,0,.1,0,.15L18,11.8a.1.1,0,0,1-.16,0,1.14,1.14,0,0,0-.16-.15.23.23,0,0,0-.31,0,.22.22,0,0,0,0,.3c.26.27.52.54.79.8a.21.21,0,0,0,.3,0,.22.22,0,0,0,0-.32l-.12-.12c-.08-.07-.08-.13,0-.21s.23-.22.34-.33.1-.06.17,0a2.13,2.13,0,0,0,1,.39.12.12,0,0,1,.11.13v.5a.11.11,0,0,1-.12.12h-.22a.23.23,0,0,0-.21.22.22.22,0,0,0,.21.22h1.11a.22.22,0,0,0,0-.44H20.5c-.1,0-.14-.05-.14-.13a3.84,3.84,0,0,1,0-.48.13.13,0,0,1,.12-.14,2.05,2.05,0,0,0,.94-.39c.08-.06.13-.05.2,0l.21.21c.23.24.22.2,0,.42a.23.23,0,0,0,0,.34.24.24,0,0,0,.34,0l.39-.4c.12-.11.24-.23.35-.35a.22.22,0,0,0,0-.32.22.22,0,0,0-.32,0l-.13.13c-.06.06-.12.07-.18,0l-.35-.35a.1.1,0,0,1,0-.16,2.26,2.26,0,0,0,.4-1,.12.12,0,0,1,.14-.12h.29c.32,0,.32,0,.32.31,0,.15.09.25.22.24a.21.21,0,0,0,.21-.24Z"/></svg>